<svg xmlns="http://www.w3.org/2000/svg" xmlns:xlink="http://www.w3.org/1999/xlink" width="314" height="133" viewBox="0 0 314 133">
  <defs>
    <filter id="Rectangle_284" x="0" y="0" width="314" height="133" filterUnits="userSpaceOnUse">
      <feOffset dx="-3" dy="3" input="SourceAlpha"/>
      <feGaussianBlur stdDeviation="10" result="blur"/>
      <feFlood flood-opacity="0.078"/>
      <feComposite operator="in" in2="blur"/>
      <feComposite in="SourceGraphic"/>
    </filter>
    <filter id="Rectangle_286" x="8" y="6" width="118" height="120" filterUnits="userSpaceOnUse">
      <feOffset dx="-3" dy="3" input="SourceAlpha"/>
      <feGaussianBlur stdDeviation="10" result="blur-2"/>
      <feFlood flood-opacity="0.078"/>
      <feComposite operator="in" in2="blur-2"/>
      <feComposite in="SourceGraphic"/>
    </filter>
  </defs>
  <g id="Group_1625" data-name="Group 1625" transform="translate(-1450 -1138)">
    <g transform="matrix(1, 0, 0, 1, 1450, 1138)" filter="url(#Rectangle_284)">
      <g id="Rectangle_284-2" data-name="Rectangle 284" transform="translate(33 27)" fill="#e3232c" stroke="#fff" stroke-width="1">
        <path d="M0,0H238a16,16,0,0,1,16,16V73a0,0,0,0,1,0,0H16A16,16,0,0,1,0,57V0A0,0,0,0,1,0,0Z" stroke="none"/>
        <path d="M1,.5H238A15.5,15.5,0,0,1,253.5,16V72a.5.5,0,0,1-.5.5H16A15.5,15.5,0,0,1,.5,57V1A.5.5,0,0,1,1,.5Z" fill="none"/>
      </g>
    </g>
    <text id="Google_Play" data-name="Google Play" transform="translate(1562 1208)" fill="#fff" font-size="25" font-family="Roboto-Regular, Roboto"><tspan x="0" y="0">GOOGLE PLAY</tspan></text>
    <g transform="matrix(1, 0, 0, 1, 1450, 1138)" filter="url(#Rectangle_286)">
      <path id="Rectangle_286-2" data-name="Rectangle 286" d="M12,0H58a0,0,0,0,1,0,0V60a0,0,0,0,1,0,0H12A12,12,0,0,1,0,48V12A12,12,0,0,1,12,0Z" transform="translate(41 33)" fill="#fff"/>
    </g>
    <path id="Icon_awesome-google-play" data-name="Icon awesome-google-play" d="M28.741,21.058,8.906,1.168,34.143,15.656l-5.4,5.4ZM3.729,0a3.494,3.494,0,0,0-1.95,3.173V42.834a3.494,3.494,0,0,0,1.95,3.173L26.791,23ZM41.944,20.276,36.65,17.211l-5.9,5.8,5.9,5.8,5.4-3.065A3.605,3.605,0,0,0,41.944,20.276ZM8.906,44.848,34.143,30.36l-5.4-5.4Z" transform="translate(1502.707 1176.993)" fill="#e3232c"/>
  </g>
</svg>
