<svg xmlns="http://www.w3.org/2000/svg" xmlns:xlink="http://www.w3.org/1999/xlink" width="314" height="133" viewBox="0 0 314 133">
  <defs>
    <filter id="Rectangle_283" x="0" y="0" width="314" height="133" filterUnits="userSpaceOnUse">
      <feOffset dx="-3" dy="3" input="SourceAlpha"/>
      <feGaussianBlur stdDeviation="10" result="blur"/>
      <feFlood flood-opacity="0.078"/>
      <feComposite operator="in" in2="blur"/>
      <feComposite in="SourceGraphic"/>
    </filter>
    <filter id="Rectangle_285" x="8" y="6" width="118" height="120" filterUnits="userSpaceOnUse">
      <feOffset dx="-3" dy="3" input="SourceAlpha"/>
      <feGaussianBlur stdDeviation="10" result="blur-2"/>
      <feFlood flood-opacity="0.078"/>
      <feComposite operator="in" in2="blur-2"/>
      <feComposite in="SourceGraphic"/>
    </filter>
  </defs>
  <g id="Group_1626" data-name="Group 1626" transform="translate(-1146 -1138)">
    <g transform="matrix(1, 0, 0, 1, 1146, 1138)" filter="url(#Rectangle_283)">
      <g id="Rectangle_283-2" data-name="Rectangle 283" transform="translate(33 27)" fill="#e3232c" stroke="#fff" stroke-width="1">
        <path d="M16,0H254a0,0,0,0,1,0,0V57a16,16,0,0,1-16,16H0a0,0,0,0,1,0,0V16A16,16,0,0,1,16,0Z" stroke="none"/>
        <path d="M16,.5H253a.5.5,0,0,1,.5.5V57A15.5,15.5,0,0,1,238,72.5H1A.5.5,0,0,1,.5,72V16A15.5,15.5,0,0,1,16,.5Z" fill="none"/>
      </g>
    </g>
    <text id="App_Store" data-name="App Store" transform="translate(1286 1208)" fill="#fff" font-size="25" font-family="Roboto-Regular, Roboto"><tspan x="0" y="0">APP STORE</tspan></text>
    <g transform="matrix(1, 0, 0, 1, 1146, 1138)" filter="url(#Rectangle_285)">
      <path id="Rectangle_285-2" data-name="Rectangle 285" d="M12,0H58a0,0,0,0,1,0,0V60a0,0,0,0,1,0,0H12A12,12,0,0,1,0,48V12A12,12,0,0,1,12,0Z" transform="translate(41 33)" fill="#fff"/>
    </g>
    <path id="Icon_awesome-app-store-ios" data-name="Icon awesome-app-store-ios" d="M39.732,2.25H4.768A4.769,4.769,0,0,0,0,7.018V41.982A4.769,4.769,0,0,0,4.768,46.75H39.732A4.769,4.769,0,0,0,44.5,41.982V7.018A4.769,4.769,0,0,0,39.732,2.25ZM12.615,37.264a1.985,1.985,0,1,1-3.437-1.987l1.42-2.453a3.409,3.409,0,0,1,3.933,1.132Zm13.8-5.354H8.344a1.987,1.987,0,0,1,0-3.973H13.41l6.5-11.244L17.87,13.176a1.985,1.985,0,0,1,3.437-1.987l.884,1.53.884-1.53a1.985,1.985,0,1,1,3.437,1.987l-8.523,14.76h6.168a2.725,2.725,0,0,1,2.255,3.973Zm9.744,0H33.276l1.947,3.367a1.985,1.985,0,1,1-3.437,1.987q-4.9-8.478-7.35-12.724a5.5,5.5,0,0,1,.705-6.735q1.952,3.382,5.851,10.132h5.165a1.987,1.987,0,1,1,0,3.973Z" transform="translate(1194.75 1176.25)" fill="#e3232c"/>
  </g>
</svg>
